<svg xmlns="http://www.w3.org/2000/svg" viewBox="0 0 239.03 124.86"><defs><style>.cls-1{font-size:81.12px;fill:#1d1d1b;font-family:Futura-Medium, Futura;font-weight:500;}.cls-2{letter-spacing:0.01em;}.cls-3{letter-spacing:0em;}</style></defs><g id="Camada_2" data-name="Camada 2"><g id="Camada_1-2" data-name="Camada 1"><text class="cls-1" transform="translate(0 101.46)">Sco<tspan class="cls-2" x="134.7" y="0">o</tspan><tspan class="cls-3" x="183.93" y="0">ts</tspan></text><path d="M88,37.62A52.61,52.61,0,0,1,93.34,28a24.35,24.35,0,0,1,8.42-7.88c.48-.25.56-.54.52-1.1a29.78,29.78,0,0,1,0-4.43A4.14,4.14,0,0,1,106.49,11q7.26-.11,14.52,0c2.75,0,4.42,1.87,4.41,4.64a14,14,0,0,1-.2,3.87c-.11.38.13.55.4.74a12,12,0,0,1,5.21,9,11.33,11.33,0,0,0,4.52,8c3.85,2.89,7.61,2.47,10.59-1.32a16.94,16.94,0,0,0,3.76-11.61,16.17,16.17,0,0,0-2.08-6.18,71.9,71.9,0,0,0-6.78-10.57,1.6,1.6,0,0,0-1-.51l-9.61-2.68A9.46,9.46,0,0,1,129.14,4,1.91,1.91,0,0,1,128,1.61,1.91,1.91,0,0,1,130.35.35c3,.79,6,1.64,9,2.47,1.12.31,1.12.32,1.3-.83a1.94,1.94,0,0,1,2.1-1.9,27.48,27.48,0,0,1,5.44.09A6.16,6.16,0,0,1,153,3.75a1.4,1.4,0,0,0,1.56.92,9,9,0,0,1,4.77.78,6.34,6.34,0,0,1,3.56,5.76,6.13,6.13,0,0,1-3.06,5.57,1.05,1.05,0,0,0-.55,1.48,27.75,27.75,0,0,1,1.19,6.33c.07.66.27.91,1,1a19.33,19.33,0,0,1,9.81,3.71,8.77,8.77,0,0,1,2.59,3.32,2.56,2.56,0,0,0,1.18,1.23c5.33,3.1,7.93,7.78,7.47,13.9a13.7,13.7,0,0,1-8.27,11.84,14.34,14.34,0,0,1-18.78-6.32,1.58,1.58,0,0,0-1.64-1q-16.54,0-33.1,0a1.72,1.72,0,0,0-1.71,1,14,14,0,0,1-13,7.5,14.32,14.32,0,0,1-14-12.48,12.5,12.5,0,0,1,.36-5.5c.18-.57,0-.84-.54-1-.84-.29-1.66-.64-2.5-1a2.73,2.73,0,0,1-1.39-1ZM168,32a1,1,0,0,0-.19-.25,6.44,6.44,0,0,0-.8-.47,19.15,19.15,0,0,0-7.57-1.87c-2.09-.12-2.71-.65-2.86-2.76,0-.4,0-.8,0-1.2a28.18,28.18,0,0,0-1.35-7,1.66,1.66,0,0,0-1.09-1.14,6.83,6.83,0,0,1-3.07-2.29c-1.74-2.28-1.9-4.87-1.48-7.56.34-2.12-.65-3.34-2.78-3.35a4.71,4.71,0,0,0-.92,0c-.46.06-1.13-.29-1.32.3a2.2,2.2,0,0,0,.15,1.88c.13.21.28.41.42.6a67.25,67.25,0,0,1,5.38,8.4c1.75,3.28,3.36,6.63,3.18,10.48a22.22,22.22,0,0,1-4.08,12,12.67,12.67,0,0,1-5.11,4.43c-4.19,1.92-8,.92-11.51-1.7a15.91,15.91,0,0,1-6.19-11.26,8,8,0,0,0-4.44-6.3A2.89,2.89,0,0,0,121,22.5c-4.47,0-8.94,0-13.41,0-2.54,0-4.63,1.25-6.74,3l.58-.1a29,29,0,0,1,9.92-.05A16.87,16.87,0,0,1,124,34.64a30.69,30.69,0,0,1,2.89,12.41c.08,1.26,0,1.27,1.3,1.27h23.66c2.3,0,1.94.19,1.94-1.89a14.32,14.32,0,0,1,11.41-14C166.12,32.2,167.06,32.1,168,32Zm-61.77-3a31.27,31.27,0,0,0-9.16,1.56,2.28,2.28,0,0,0-1.34,1c-1.09,1.68-2,3.45-2.94,5.23-.39.75-.35,1,.51,1.37q12.3,4.66,24.55,9.45a10.1,10.1,0,0,0,4.13.73c.67,0,.92-.22.91-.91a28.16,28.16,0,0,0-1-7.2,15.19,15.19,0,0,0-4.86-8.1C114.08,29.67,110.57,28.9,106.27,29Zm72.37,17.68A10.48,10.48,0,1,0,167.84,57,10.48,10.48,0,0,0,178.64,46.63ZM106.28,57c.52-.06,1-.09,1.56-.16a10.3,10.3,0,0,0,7.72-5.26c.24-.4.16-.59-.27-.75-.87-.3-1.74-.61-2.58-1a.8.8,0,0,0-1.14.35A6.29,6.29,0,0,1,104,52.33a6.39,6.39,0,0,1-4-6.73.67.67,0,0,0-.48-.84c-.87-.32-1.74-.63-2.58-1-.57-.24-.79-.05-.86.51a15.47,15.47,0,0,0-.18,3.2A10.54,10.54,0,0,0,106.28,57Zm7.55-38.44h5.26c2.37,0,2.33,0,2.37-2.41,0-1-.33-1.2-1.23-1.19-3.85.05-7.69,0-11.54,0-2.58,0-2.56,0-2.54,2.61,0,.78.28,1,1,1C109.4,18.49,111.61,18.52,113.83,18.52Zm41.46-9.87H154c-.41,0-.62.16-.64.6a5.41,5.41,0,0,0,.69,3.1,3.37,3.37,0,0,0,2.9,1.47,2.62,2.62,0,0,0-.46-5.16C156.09,8.63,155.69,8.65,155.29,8.65ZM106.48,48.84a2,2,0,0,0,1.13-.31c.15-.09.36-.18.33-.4s-.24-.24-.41-.3l-2.91-1.12c-.16-.06-.34-.19-.51,0s0,.4,0,.59A2.4,2.4,0,0,0,106.48,48.84Z"/><path d="M105.79,30.72c4,0,7.74,1,10.68,4a10.48,10.48,0,0,1,1.59,2,2,2,0,0,1-.58,2.83,1.85,1.85,0,0,1-2.65-.63c-2.08-3.08-5.07-4.22-8.64-4.22a19.34,19.34,0,0,0-4,.34,4.69,4.69,0,0,1-.92.06,1.89,1.89,0,0,1-2-1.65,2,2,0,0,1,1.53-2.13A20.05,20.05,0,0,1,105.79,30.72Z"/><path d="M120.44,42.74a1.86,1.86,0,0,1-1.87,2,2,2,0,1,1,1.87-2Z"/><path d="M161.73,46.4a6.36,6.36,0,1,1,12.71.05,6.45,6.45,0,0,1-6.35,6.38A6.36,6.36,0,0,1,161.73,46.4Zm8.74,0A2.39,2.39,0,0,0,168.1,44a2.53,2.53,0,0,0-2.5,2.46,2.5,2.5,0,0,0,2.52,2.42A2.36,2.36,0,0,0,170.47,46.41Z"/></g></g></svg>