<svg xmlns="http://www.w3.org/2000/svg" xmlns:xlink="http://www.w3.org/1999/xlink" viewBox="0 0 50 50"><defs><style>.cls-1{fill:url(#Gradiente_sem_nome_2);}</style><radialGradient id="Gradiente_sem_nome_2" cx="31.09" cy="28" r="25.88" gradientTransform="translate(-4.77 -2.28) scale(0.96 0.97)" gradientUnits="userSpaceOnUse"><stop offset="0" stop-color="#e39a65"/><stop offset="0.47" stop-color="#a92ffb"/><stop offset="0.59" stop-color="#891cfb"/><stop offset="0.73" stop-color="#6507fa"/><stop offset="1" stop-color="#3919bb"/></radialGradient></defs><g id="Camada_2" data-name="Camada 2"><g id="Camada_1-2" data-name="Camada 1"><path class="cls-1" d="M33.09,45.3a19.79,19.79,0,0,0,8.67-6.78c5.18-7.29,6-15.15,1.87-23.1S32.63,3.64,23.79,4A21.13,21.13,0,0,0,4.1,22.22C2.73,33,8.69,42.74,18.59,46a7.4,7.4,0,0,1,.91.29,1.9,1.9,0,0,1,1.21,2.35,1.75,1.75,0,0,1-2.21,1.34A22.77,22.77,0,0,1,15,48.71,25.52,25.52,0,0,1,21.14.32C34.13-1.79,46.43,6.78,49.39,20A25.49,25.49,0,0,1,32.25,49.77c-2.16.66-3.21-.16-3.23-2.42s0-4.65-.22-7a8.85,8.85,0,0,0-1-3.16,2,2,0,0,1,1.76-3.05c3.25-.15,5.89-1.5,7.31-4.51a9.48,9.48,0,0,0-.53-9.85,5.92,5.92,0,0,1-.53-1.92c-.05-.23.08-.49.06-.73-.07-.94-.16-1.88-.25-2.82A10.14,10.14,0,0,0,33,15.46a4.13,4.13,0,0,1-4.22.72,15.21,15.21,0,0,0-8.76.27,3,3,0,0,1-3-.59,15,15,0,0,0-2.75-1.37c-.09,1-.14,2-.29,3a7,7,0,0,1-.6,2.5c-3.57,6-.3,13.17,6.49,14.17.23,0,.47.06.71.09a2,2,0,0,1,1.52,2.9A21,21,0,0,0,21,40.68c-.27,1.39-.82,2.11-2.2,2.34-3.46.57-6.14-.83-8.39-3.4a36.46,36.46,0,0,0-2.78-2.78,2.07,2.07,0,0,1-.47-2.54,1.58,1.58,0,0,1,2.25-.77,18.21,18.21,0,0,1,3.31,2.69c1.12,1.15,1.92,2.62,3.67,3,.65.14.92,0,1.08-.7s-.25-.87-.76-1.06a12.64,12.64,0,0,1-8.4-9.86,13.73,13.73,0,0,1,1.32-8.89,6.53,6.53,0,0,0,.44-1.83c.25-1.64.4-3.3.7-4.92a1.83,1.83,0,0,1,2.31-1.6A32.51,32.51,0,0,1,18.19,12a3.26,3.26,0,0,0,2.23.37,19.9,19.9,0,0,1,9-.06A2.89,2.89,0,0,0,31,12c1.65-.6,3.24-1.37,4.92-1.86,1.86-.53,2.67,0,3.21,1.9a6.52,6.52,0,0,1,.43,1.9c-.09,2.61.89,4.92,1.56,7.37,2.07,7.59-1.57,14.13-8,16.17-.51.16-.8.32-.72,1C32.68,40.71,32.86,42.93,33.09,45.3Z"/></g></g></svg>