<svg xmlns="http://www.w3.org/2000/svg" xmlns:xlink="http://www.w3.org/1999/xlink" viewBox="0 0 50 50"><defs><style>.cls-1{fill:url(#Gradiente_sem_nome_5);}.cls-2{fill:url(#Gradiente_sem_nome_5-2);}.cls-3{fill:url(#Gradiente_sem_nome_5-3);}.cls-4{fill:url(#Gradiente_sem_nome_5-4);}</style><linearGradient id="Gradiente_sem_nome_5" y1="25" x2="50" y2="25" gradientUnits="userSpaceOnUse"><stop offset="0" stop-color="#e39a65"/><stop offset="1" stop-color="#e95f8d"/></linearGradient><linearGradient id="Gradiente_sem_nome_5-2" x1="19.92" y1="30.07" x2="41.22" y2="30.07" xlink:href="#Gradiente_sem_nome_5"/><linearGradient id="Gradiente_sem_nome_5-3" x1="8.79" y1="30.28" x2="15.62" y2="30.28" xlink:href="#Gradiente_sem_nome_5"/><linearGradient id="Gradiente_sem_nome_5-4" x1="8.3" y1="12.21" x2="16.3" y2="12.21" xlink:href="#Gradiente_sem_nome_5"/></defs><g id="Camada_2" data-name="Camada 2"><g id="Camada_1-2" data-name="Camada 1"><path class="cls-1" d="M0,6.94.21,6A7.8,7.8,0,0,1,7.67,0Q25,0,42.33,0A7.75,7.75,0,0,1,50,7.69Q50,20,50,32.25a2,2,0,1,1-3.9,0V8a3.89,3.89,0,0,0-2.85-3.91A4.81,4.81,0,0,0,42,3.92H8A3.9,3.9,0,0,0,3.91,8q0,17,0,34.07A3.89,3.89,0,0,0,8,46.09H42a3.91,3.91,0,0,0,4.09-3.93,2,2,0,1,1,3.9.07,7.84,7.84,0,0,1-6.56,7.67c-.13,0-.25.07-.37.1H6.93a2.14,2.14,0,0,0-.27-.09A7.72,7.72,0,0,1,.25,44.14c-.1-.35-.17-.71-.25-1.07Z"/><path class="cls-2" d="M26.56,22a7.09,7.09,0,0,1,4.36-2.93,10.13,10.13,0,0,1,5.72.29,6,6,0,0,1,4,4.8,22.19,22.19,0,0,1,.49,4.15c.07,3.63,0,7.26,0,10.88a2,2,0,0,1-2.08,2.08H36.73a2,2,0,0,1-2.26-2.24c0-3.09,0-6.18,0-9.27a12.21,12.21,0,0,0-.19-2.09,3.32,3.32,0,0,0-4.18-3,3.68,3.68,0,0,0-3.3,3.34,12.92,12.92,0,0,0-.21,2.32c0,2.9,0,5.8,0,8.69a2,2,0,0,1-2.2,2.21H21.92a1.94,1.94,0,0,1-2-2V21.24a1.94,1.94,0,0,1,2-2h2.59a2,2,0,0,1,2,2Z"/><path class="cls-3" d="M15.62,30.28v8.83a2,2,0,0,1-2.2,2.2H10.79a1.94,1.94,0,0,1-2-2v-18a2,2,0,0,1,2-2h2.78a2,2,0,0,1,2,2.06C15.63,24.29,15.62,27.28,15.62,30.28Z"/><path class="cls-4" d="M16.3,12.23a4,4,0,1,1-4-4A4,4,0,0,1,16.3,12.23Z"/></g></g></svg>