<svg xmlns="http://www.w3.org/2000/svg" viewBox="0 0 296.41 260.93"><defs><style>.cls-1{fill:#002542;}.cls-2{fill:#fff;}</style></defs><g id="Camada_2" data-name="Camada 2"><g id="Camada_1-2" data-name="Camada 1"><path class="cls-1" d="M280.44,191.05c5.22,2.73,7.39,6.64,6.62,11.54-.47,3-2.41,4.57-4.8,5.87-1.52.83-2,1.81-1.28,3.58,1.42,3.41,2.59,6.93,3.86,10.4a18,18,0,0,0,2.09,5.44c.92,1.72.56,2.61-1.47,2.61-1.5.15-3,.49-4.44-.28-1.5-.45-1.81-1.83-2.26-3.05-1.45-3.84-2.95-7.66-4.31-11.69-.11,4.72.14,9.27-.11,13.82-.19.87-.07,1.84-.89,2.48-1.78,1-3.7.74-5.56.46s-2.35-1.67-2.35-3.3a88.17,88.17,0,0,1,.22-11.38c-.34-1.58,1.66-2.53.94-4.36-2.53-6.47-.27-13.12-.44-19.69a3.2,3.2,0,0,1,2.3-3.24,18.89,18.89,0,0,1,10.77-.15A1.75,1.75,0,0,1,280.44,191.05Z"/><path class="cls-1" d="M296.15,239.32l0,1.11a.79.79,0,0,1-.87.7c-.58,0-1.16,0-1.74,0q-126.46,0-252.93,0a9.9,9.9,0,0,1-3.81-1c-.68-.4-1.34-.82-.44-1.66a11.23,11.23,0,0,1,4.2-.3H171.65a17.62,17.62,0,0,0,4-.29q18.25,0,36.54,0c3,0,5.93.69,8.9,0,19.12.09,38.24-.08,57.34.79,5.2,0,10.4,0,15.6,0C294.74,238.67,295.71,238.22,296.15,239.32Z"/><path class="cls-1" d="M18.93,231.43l-.09.91c-2.89-.49-3.6-3.69-6.12-5-.12,1.72,1.5,2.48,1.58,3.85-2.93-.44-4.85-3.36-5.42-8.29a19.6,19.6,0,0,1,0-5c.31-1.39,0-3,1.16-4.09.82-.4,1.76.11,2.56-.38,4.25.08,4.25.08,4.71,4.32a32.94,32.94,0,0,0,.32,3.46c.14.68.46,1.6,1.38,1.54a1.81,1.81,0,0,0,1.51-1.46,9.15,9.15,0,0,0,.45-2.41c0-5,0-10-.06-15,.06-3.66.13-7.32.18-11,0-1.65.53-2.84,2.47-2.5,1.72.3,4.2-1,4.5,2.35.44,4.84.54,9.69.8,14.5a111.48,111.48,0,0,1,.06,11.56,40.31,40.31,0,0,1-1.06,6.88c-.68,3-2.75,4.82-5.67,5.73a2.39,2.39,0,0,1-2.74-.51,7.8,7.8,0,0,1-1.33-1.15l-.05-.12a.78.78,0,0,0,.05.14C18.68,230.2,18.74,230.85,18.93,231.43Z"/><path class="cls-1" d="M0,238.9H24c.61.56,1.93.59,1.48,2H0Z"/><path class="cls-1" d="M278.5,238.62v-.19c5.3,0,10.61-.05,15.91,0,.63,0,1.79-.6,1.74.9-.81-.85-1.86-.5-2.81-.52C288.39,238.72,283.44,238.68,278.5,238.62Z"/><path class="cls-1" d="M281,230.4c0-.11,0-.22,0-.33,1.43.77,3,.2,4.47.42A5,5,0,0,1,281,230.4Z"/><path class="cls-1" d="M258.33,61.5a145,145,0,0,1,13.42,28.92,132.06,132.06,0,0,1,5.39,56.67,129.7,129.7,0,0,1-7.21,29.49,15.72,15.72,0,0,0-.43,1.67c-.17.35-.48.37-.82.41-8.25,1-16.53.72-24.81.74-4.07,0-8.14,0-12.21,0s-4.65-1.14-2.74-4.65a94.13,94.13,0,0,0,10.29-31.62,90.69,90.69,0,0,0-3.08-38.71,110,110,0,0,0-6.51-16.18,7.17,7.17,0,0,1-1-2.78C228.76,83.9,229.9,84,231,84c8.87,0,14.62-5,18.41-12.34,2-3.95,1.07-8-2-11.31S240.31,55.84,236,57.4c-6.44,2.36-11.29,6.6-13.8,13.2-.35.9-.53,2-1.8,2.14-1.3-.15-2-1.18-2.71-2-14.64-16.41-32.66-26.84-54.4-30.5a90,90,0,0,0-51.71,6.4C92.05,55.08,77.33,69,67.17,87.63A89.59,89.59,0,0,0,56.8,122.06c-1.68,17,1.51,33.13,8.57,48.58.86,1.9,2.11,3.6,2.85,5.55s.3,2.77-1.8,3.07a13.25,13.25,0,0,1-2,.08q-17.58.07-35.16-.2a4,4,0,0,1-2.41-.43A8,8,0,0,1,25,175.2a129,129,0,0,1-7.39-52.56c1.93-29.37,12.44-55.41,31.81-77.59A130,130,0,0,1,138.28.41a127.6,127.6,0,0,1,53.49,6.94c18,6.51,34.23,16.19,47.77,30,3.37,3.45,7,6.66,9.79,10.63a2.47,2.47,0,0,1,.34.69c.17,5.56,2.89,9.39,7.92,11.64A1.22,1.22,0,0,1,258.33,61.5Z"/><path class="cls-1" d="M217.61,180.82h44.92l30.89.08c.66,0,1.32,0,2,0s1,.45,1,1.13-.14,1.36-1,1.34c-1.66,0-3.31-.09-5-.14-10-.21-20-.35-29.93,0-4.8.19-9.6.33-14.4.34q-60,.06-120,0c-1,0-2,0-3,0-2.62-.14-2.87-.68-1.42-3a5.08,5.08,0,0,1,3.33-.74c19.06.05,38.12-.08,57.19,0,1.48.52,3,0,4.43,0,9.17,0,18.35,0,27.53,0C215.37,179.88,216.63,179.85,217.61,180.82Z"/><path class="cls-1" d="M10,180.82h2.49a4.1,4.1,0,0,1,3-.94c6.8,0,13.61.06,20.42,0a4.5,4.5,0,0,1,3,.91l40.16.09c2.07,0,4.15.05,6.23.08.12,1.57-.85,2.22-2.16,2.58-15.35.18-30.72.43-46.06-.06-10.36-.33-20.7-.18-31-.27-1.48.06-3,.1-4.45.17-.95,0-1.59-.18-1.54-1.36s.71-1.13,1.5-1.14C4.37,180.89,7.17,180.85,10,180.82Z"/><path class="cls-1" d="M6.05,183.24c1-.6,2.11-.33,3.17-.33q37.31,0,74.62,0c2.1-1.34,4.45-.88,6.73-.94,1.64.52,3.28,0,4.92,0,5.27-.07,10.54-.25,15.81,0a2.3,2.3,0,0,0,2.59-1.34,9.5,9.5,0,0,1,7.59,0l.28.38c-1.17,2.15.27,1.93,1.66,1.93q36.4,0,72.81,0,45.5,0,91,0c1.06,0,2.17-.27,3.17.33l-7.41.15H259.54a3.26,3.26,0,0,1-2.46,1c-13.32,0-26.64.2-40-.11a35.47,35.47,0,0,1-4,.14q-50,0-100,0a31.27,31.27,0,0,0-5.21-.08c-8.36,0-16.72.22-25.07-.09-15,.32-30,.08-44.94.13a3.66,3.66,0,0,1-3-1H11.48Z"/><path class="cls-1" d="M213,243.86A187.61,187.61,0,0,1,193,253a126.58,126.58,0,0,1-33,7.37A128.45,128.45,0,0,1,87.73,246c-1.4-.73-2.82-1.42-4.22-2.13-.14-.39,0-.64.4-.68a18.88,18.88,0,0,1,2,0q62.34,0,124.66,0C211.32,243.19,212.55,242.33,213,243.86Z"/><path class="cls-1" d="M213,243.86c-.7-.9-1.7-.5-2.55-.5q-62.19,0-124.36,0c-.86,0-1.85-.4-2.55.5l-1.77-.78H214C214,243.74,213.36,243.66,213,243.86Z"/><path class="cls-2" d="M277,197.61c1.4.29,3.32.35,3.5,2.73.14,1.76-1.76,3.42-3.84,3.47s-2.34-1.33-2.26-3S274.26,197.46,277,197.61Z"/><path class="cls-1" d="M273.6,228.93a1.79,1.79,0,0,1-.11,2.46C273.53,230.57,273.56,229.75,273.6,228.93Z"/><path class="cls-1" d="M32.44,238.89h3.49l4,1.95h-6C33.24,240.35,32,240.26,32.44,238.89Z"/><path class="cls-1" d="M44.3,230.48c-5.84-.82-10.68-5.42-12.29-11.86A32.71,32.71,0,0,1,31.63,205a18.09,18.09,0,0,1,5.78-10.2,2.15,2.15,0,0,1,2.32.56,4,4,0,0,1,1.13,1.79,3.41,3.41,0,0,0,.61,1.95,5.63,5.63,0,0,1,1.13,5.37,32.38,32.38,0,0,0-.17,13.58,2.21,2.21,0,0,1-.08,1.46c-.3.4-.53.8.26.93a2.56,2.56,0,0,1,1.48,1.67,26.08,26.08,0,0,1,1.41,6C45.58,229.06,46,230.38,44.3,230.48Z"/><path class="cls-1" d="M38.93,193.35a14.4,14.4,0,0,1,10-1.31,3.7,3.7,0,0,1,.54.71,3.45,3.45,0,0,0,1.28.78,2.18,2.18,0,0,1,.71.57,4,4,0,0,0,1.36,1.21,2.12,2.12,0,0,1,1,.66c.51.54.53,1.37,1.12,1.87,3.87,3.16,4,7.7,4.18,12.07a26.76,26.76,0,0,1-1.8,11.48,1.19,1.19,0,0,1-1.75-.25c-1.73-1.85-3.64-3.59-4.37-6.16-.28-3.27,0-6.59-.88-9.84a6.74,6.74,0,0,0-3.47-4.51c-2.56-1.43-5.34-2.6-7.33-4.9a5.75,5.75,0,0,1-1.18-1.33C38.44,194,38.46,193.55,38.93,193.35Z"/><path class="cls-1" d="M51.88,214.84a16.66,16.66,0,0,0,5.45,6.55l-.36,1.5a4.43,4.43,0,0,1-2.88,4.88c-2-.06-2.65-1.74-3.8-2.91,0,1.68,1.05,3.23.56,4.95a1.18,1.18,0,0,1-.48.51l-4.95.61-1.12-.45c1.31-1.49,0-2.95-.13-4.42s-.89-2.81-.69-4.34c2-.26,4,.05,5.83-.85a1.68,1.68,0,0,1,1,.22,2,2,0,0,1-.51-1.49,15.35,15.35,0,0,1,1.4-4.65A.61.61,0,0,1,51.88,214.84Z"/><path class="cls-1" d="M38.35,194.4l1.08,1c.16.13.21.26.15.37s-.12.18-.18.18c-.68-.34-1.11-1.13-2-1.1A.93.93,0,0,1,38.35,194.4Z"/><path class="cls-1" d="M240.09,193.88c2.86,2.27,4.51,5,4,8.87a54.23,54.23,0,0,0,0,7.65q-.27,8.85-.54,17.7c-.11,3.24-.31,3.41-3.47,3.16-.83-.07-1.65-.29-2.47-.29-1.43,0-1.84-.74-1.84-2.05,0-3.33-.17-6.66-.11-10,0-1.9-.57-2.85-2.59-2.53a9.24,9.24,0,0,1-1.49.08c-2.32,0-3.34.84-3.17,3.43.21,3.14-.23,6.31-.19,9.47,0,1.76-.78,2.32-2.32,2.47-1.23.11-2.46.34-3.69.52-.72-2.61-.46-5.29-.51-8-.18-10.07-.26-20.15-.53-30.22-.06-2.16.57-3.11,2.72-3a3.26,3.26,0,0,0,.74-.12c4-.55,4.06-.46,4,3.52-.05,4.42-.09,8.83-.16,13.25,0,1.4.23,2.25,2,1.71a33.66,33.66,0,0,1,4.17-.75c1-.44.73-1.37.74-2.15,0-2.81,0-5.62,0-8.43a6.5,6.5,0,0,1,.71-3.8c-.86-1-1.35-2.32-.48-3.12s1.66.71,2.55,1S239.86,192.81,240.09,193.88Z"/><path class="cls-1" d="M246.53,208.9c.45-5.11.3-10.25.9-15.36.24-2.11,1.3-2.93,3.17-3,2.65-.12,5.29-.14,7.94-.21,1.66,0,3.32.1,5,.08,1.11,0,1.51.45,1.3,1.52-.1.49-.19,1-.25,1.48-.45,3.56-.45,3.56-4.11,3.57h-.25c-4.95,0-5,0-5.2,4.91a44.62,44.62,0,0,1-.36,4.47c-.22,1.54.29,2.21,1.87,2,.57-.09,1.14-.17,1.72-.23,3.68-.4,3.87-.14,3.89,3.61,0,1.54-.4,2.36-2,2.4-.74,0-1.48.2-2.22.23-3.38.15-3.53.25-3.34,3.76.08,1.57-.61,1.19-1.45.77-.63-.25-.85-.08-.58.58,1.28,1.32,2.49,2.66,2.12,4.74-.09.48.05,1.2.65,1.13,2.36-.27,4,1.38,6,2.1,1.09.39.53-.49.36-.93,1.2-.73,1.56.07,1.84,1,.44,2.11-.27,3.27-2.56,3.47-2.78.25-5.55.69-8.33,1.05-5.26.22-5.12.2-5.6-5.29C246.44,220.78,246.83,214.84,246.53,208.9Z"/><path class="cls-1" d="M263.44,227.5c-.59-.38-.92-1.24-1.84-1l-.57-1.59,1.06-.46a3.24,3.24,0,0,1,1.84,1.81Z"/><path class="cls-1" d="M263.93,226.24a3.47,3.47,0,0,1-1.84-1.81C263.55,224.17,264.21,224.72,263.93,226.24Z"/><path class="cls-1" d="M32.44,238.89l1.49,2H25.44l-1.48-2Z"/><path class="cls-1" d="M229,85c-2.66-4.3-5.42-8.52-8.49-12.54,1.12-3.13,2.35-6.23,4.66-8.68,4.13-4.38,8.7-8,15.18-7.87,7.54.15,13.36,9.35,10,16.13A24,24,0,0,1,235.09,84.7C233.06,85.3,231,84.34,229,85Z"/><path class="cls-1" d="M249,49a78.4,78.4,0,0,1,8.58,11.89C252.16,59.34,249.15,55.16,249,49Z"/><path class="cls-1" d="M207.18,74.4c-2.35-1.36-5-1.47-7.62-2a11.16,11.16,0,0,1-5-1.94,73.68,73.68,0,0,0-50-15.64C122.31,56,104,65.28,89.67,82.3c-1.5,1.77-2.8,2.64-4.93,1.2a7.52,7.52,0,0,0-1.87-.65c-1.68-.91-.47-1.77.11-2.52a83.11,83.11,0,0,1,23.44-20.64,80.74,80.74,0,0,1,47-11.19c20.71,1.36,38.49,9.5,53.25,24.15C207.14,73.09,208.13,73.52,207.18,74.4Z"/><path class="cls-1" d="M96.35,97.53c-6.64-1.29-12.79-4-19-6.53-1.24-.68-2.5-1.32-3.7-2.06a2.3,2.3,0,0,1-1.07-3.2c.72-1.45,2-1.64,3.39-1s2.57,1.15,3.85,1.73a68.66,68.66,0,0,0,38.63,7.26c10.34-1,19.87-4.54,29-9.3a78.16,78.16,0,0,1,38.94-8.89,100.32,100.32,0,0,1,24.71,4.33c3.45,1.35,6.9,2.68,10.34,4.07,1.68.68,3.42,1.65,2.4,3.8s-2.89,1.69-4.64.74c-.36-.19-.74-.35-1.11-.52a77.47,77.47,0,0,0-27.42-7c-1.29-.58-2.67,0-4-.36l-5.08,0c-1.47.48-3-.21-4.5.4a61.77,61.77,0,0,0-23.4,6,2.51,2.51,0,0,1-1.25,1.49c-7.78,3.71-15.45,7.7-24,9.34-9.14,2.95-18.45,2.51-27.8,1.47A8.72,8.72,0,0,1,96.35,97.53Z"/><path class="cls-1" d="M74.73,94.49c1.25.65,2.46,1.39,3.75,1.91s1.29,1.1.76,2.25a71.61,71.61,0,0,0-6.51,22.88,4.75,4.75,0,0,1-2.3,4c-3.62,2.31-3.42,8.28.13,11,.92.7,1.81,1.2,2,2.61a76.72,76.72,0,0,0,10.82,31.8c-3.19-.83-5.63-2.45-8.46-2.92-.93-.15-1.13-1.37-1.49-2.19a81.62,81.62,0,0,1-6.61-21.6,4.78,4.78,0,0,0-.35-.93,108.89,108.89,0,0,1-.51-18.41,82.13,82.13,0,0,1,7.53-29C73.72,95.28,73.89,94.56,74.73,94.49Z"/><path class="cls-1" d="M202.64,165.85a123.2,123.2,0,0,1,19.46,6.52c1.17.82,2.4,1.65,1.93,3.36s-2,1.74-3.41,1.67c-2.44-.08-4.57-1.23-6.79-2.05a76.4,76.4,0,0,0-18.23-4.52c-1.08-.12-2.09-.52-3.16-.63-10-.8-19.9-.48-29.58,2.54a78,78,0,0,0-13.53,5.69c-4.23,2.25-8.75,1.37-13.19,1.23a1.34,1.34,0,0,1-1.37-.91c-.2-.79.44-1.18.95-1.59a1.59,1.59,0,0,1,.43-.26C146.94,172.44,157,166,168.8,164.28a72.1,72.1,0,0,1,10.87-1.16c.87.11,1.71-.28,2.58-.14a7.92,7.92,0,0,0,3.46,0,79.63,79.63,0,0,1,14.11,1.44A4.77,4.77,0,0,1,202.64,165.85Z"/><path class="cls-1" d="M228.53,150.79a150,150,0,0,1-5.19,14.51c-.74,1.64-1.43,2.57-3.24,1.34a4.41,4.41,0,0,0-1.6-.66c-2-.41-2-1.32-1.19-3a70.58,70.58,0,0,0,6.39-22.41c.17-1.72.52-3.13,2.32-4.26,3.67-2.3,3.44-8.12-.11-11-.74-.58-1.77-.85-1.89-2.11a89.76,89.76,0,0,0-5.49-22.17c.35-2.8,3-4.69,5-3.64a78.28,78.28,0,0,1,7.12,30.85A99.54,99.54,0,0,1,228.53,150.79Z"/><path class="cls-1" d="M73.36,172.9a3.79,3.79,0,0,1,2.88.17,77.74,77.74,0,0,0,10.82,4.86.87.87,0,0,1,.65.92c-3,0-6.1-.1-9.15-.06a8,8,0,0,1-4-1C72,176.41,71.75,175.35,73.36,172.9Z"/><path class="cls-1" d="M93.83,180.83h19.45a.36.36,0,0,1,.51.16l1.52,2.09c-8.5-.81-16.46,0-24.43-.21-.38-1.69,1.09-1.45,1.93-1.88Z"/><path class="cls-1" d="M223.56,97.42c-2.4.21-3.71,1.94-5,3.64l-.42-.14a4.48,4.48,0,0,1-2.06-4.49,4,4,0,0,0,0-.5c.19-1.32,1.2-2.08,2-3l.5-.1C221.07,93.5,223.22,94.48,223.56,97.42Z"/><path class="cls-1" d="M92.81,181c-.65.62-1.58,1-1.93,1.88h-7L85.32,181Z"/><path class="cls-1" d="M252.52,219.44l-2.05-1.81c1.53-.38,2,.56,2.63,1.23Z"/><path class="cls-1" d="M186.14,229.4c-.2-3.23-1.22-6.37-1-9.64.07-.91-.35-1-1.2-1-2.92.16-4,1.11-4.25,4.09-.19,1.82-.29,3.65-.59,5.45-.38,2.31-2.08,3-5.57,2.65-2.38-.23-1.94-1.84-1.84-3.28.32-4.39,1.48-8.68,1.56-13.1.73-2.31.23-5,1.19-7.05,2.18-4.74,3.14-10.06,6.26-14.32,2.29-3.13,6.22-2.67,9.55-3.43.68-.16.85.66.86,1.25a20.18,20.18,0,0,1,0,3.48c-.69,4.32-.12,8.61.11,12.91-.27,6.09.56,12.1,1.45,18.1.53,3.52,0,4.19-3.67,4.38C188,229.93,187,230.25,186.14,229.4Z"/><path class="cls-1" d="M203.61,199.9c-1.22-1.34-2.8-.55-4.19-.6-2.33-.09-3.74-.55-4-3.39-.54-4.83-.78-4.79,4.11-5s9.76-.38,14.64-.57c1.49,0,3,.06,4.48,0s2,.72,2,2.16c0,3.42-1.22,4.94-4.57,5.47-4.23.67-4.26.67-4.38,5-.22,8.48-.46,17-.58,25.46,0,2.25-.62,3.26-3.13,3.17-4.83-.18-4.84,0-4.82-4.91,0-5.16-.21-10.34.14-15.48C203.54,207.44,203.72,203.68,203.61,199.9Z"/><path class="cls-1" d="M93.8,203.91q0,9,0,18c0,1.1,0,2.21,0,3.32-.45,1,0,2.13-.36,3.14-.27,3.07-2.61,2.54-4.58,2.63-1.76-.06-2.34-1.47-2.88-2.73-2.26-5.24-4.43-10.53-6.63-15.8-.2-2.43,1.5-3.65,4.16-2.69,1.72.62,3.09.72,4.51-.61,1-.9,1.87-1.58,1.14-3.08-.2-.42.06-1,.8-.75,1.33-.08,1-.86.47-1.43-.77-.91-1.69-1.7-2.54-2.54-.09-.41,0-.65.48-.46,1.32.88,2.32,2.25,4,2.58C92.82,203.68,93.38,203.53,93.8,203.91Z"/><path class="cls-1" d="M238.51,192c-.23-.35-1.34-.84-.15-1.08a28,28,0,0,1,4.94-.3c1,0,1.27.66,1.19,1.51-.11,1.15-.25,2.29-.44,3.94-1-1.65-1.83-2.72-3.4-2.75A2.69,2.69,0,0,1,238.51,192Z"/><path class="cls-1" d="M236,194.46a4.5,4.5,0,0,1,2,1.88c-1,.44-1.64-1.35-2.31-.48-.42.54-.23,1.59-.23,2.41,0,2.9.06,5.79.05,8.69,0,.75.33,1.77-1,1.88,1.07-3.72.25-7.51.46-11.27C235.1,196.43,234.9,195.25,236,194.46Z"/><path class="cls-1" d="M238.51,192l2.14,1.32-.56.56-2-1.5Z"/><path class="cls-1" d="M93.42,228.36c0-1.05-.29-2.15.36-3.14C93.74,226.28,94.12,227.38,93.42,228.36Z"/><path class="cls-1" d="M89.94,205.33c-.11.13-.33.28-.31.37.28,1,2.26,1.75.26,2.9-1.85,1.05-2.84,4-6,2.18-2.4-1.41-3.46-.81-4.59,1.68-1,1.18-.26,2.63-.55,3.91a.76.76,0,0,1-.92-.59c-.4-1.19-.9-.92-1.74-.33-1.32.94-2.22,2.68-4.22,2.44q-.32-9-.64-18c0-.33.09-.66.14-1a2.23,2.23,0,0,1,2.14,0,88.06,88.06,0,0,1,9.35,3.94c.68,1.5,1.36,3,2.29,5.09v-6.21C86.61,203.92,88.63,204.07,89.94,205.33Z"/><path class="cls-1" d="M68.85,197.89c-.22,2.13-2.47,1.6-3.51,2.71.07.09.15.29.22.28,3.33-.26,3.38-.26,3.31,3.24-.13,5.81.15,11.68-.69,17.39-.44,3,1.29,6-.31,8.86a10.2,10.2,0,0,1-2.07-5c-1.48-6.9-3.57-13.68-4-20.79,0-.53.07-1.18-.39-1.65a25.64,25.64,0,0,1,0-9.12c1.65,1.52.42,3.68,1.16,5.46,1.25-.3,1.89-1.42,2.95-1.88C66.69,196.85,68,196.2,68.85,197.89Z"/><path class="cls-1" d="M61.37,202.93c1.66,2.88,1.56,6.23,2.43,9.32,1.48,5.25,1.9,10.76,3.94,15.89a7.1,7.1,0,0,1,.13,2.23,17.82,17.82,0,0,1-6,1,1.76,1.76,0,0,1-.76-1.57c0-2.8,1-5.56.33-8.39Q61.43,212.17,61.37,202.93Z"/><path class="cls-1" d="M82.89,202.84c-.61.75-1.2.18-1.78-.05l-9.71-3.88c0-1-.1-2-.1-3,0-1.23-1-2.83.63-3.53s3.4-1.3,5.43-.3a5.71,5.71,0,0,1,3.42,4.12C81.33,198.47,82.18,200.64,82.89,202.84Z"/><path class="cls-1" d="M68.85,197.89c-2.38-1.26-3.57.72-5.08,1.87-.62.47-1,1.63-1.91,1.25s-.41-1.47-.45-2.25c-.06-1.65,0-3.3-.06-4.95-.29-1.74.27-2.44,2.2-2.52,6.13-.28,6.13-.37,5.69,5.78,0,.24,0,.49-.07.74Z"/><path class="cls-1" d="M93.81,192.41c0,2.16,0,4.33,0,6.49a3,3,0,0,1-3.52,1q-1.95-1.63-3.91-3.26a2.1,2.1,0,0,1-1-2.27C88.07,193.28,90.7,191.84,93.81,192.41Z"/><path class="cls-1" d="M93.81,192.41c-2.77.85-5.38,2.39-8.44,2,0-.84-.09-1.67-.13-2.51,1.66-1.82,7.22-2.14,8.69-.5Z"/><path class="cls-1" d="M90.28,199.94a9.62,9.62,0,0,1,3.52-1v5a.91.91,0,0,1-1.45-.43C93.12,201.44,90.75,201.25,90.28,199.94Z"/><path class="cls-1" d="M50.87,194.29l-.35-.36a6.72,6.72,0,0,1-1.62-1.05c0-.28,0-.56,0-.84,2.48.76,4.25,2.51,6,4.33a1,1,0,0,1-1.49-.05l-1.07-.49C52,195.12,51.39,194.76,50.87,194.29Z"/><path class="cls-1" d="M61.84,230c-.66-1.13-.14-2.41-.46-3.58l.09-5C62.35,224.24,61.77,227.12,61.84,230Z"/><path class="cls-1" d="M88.35,200.9l-.48.46a6,6,0,0,1-2.64-2.94A7,7,0,0,1,88.35,200.9Z"/><path class="cls-1" d="M40.48,197.34a4.77,4.77,0,0,1,1.88,2.35l-2-.82C39.74,198.31,40.31,197.84,40.48,197.34Z"/><path class="cls-1" d="M41.88,219.84c0,.32.07.65.11,1a2.6,2.6,0,0,1-.64-.34c-.32-.31-1-.62-.67-1.07S41.44,219.76,41.88,219.84Z"/><path class="cls-1" d="M48.9,192.88a2,2,0,0,1,1.62,1.05C49.51,194.3,49.23,193.54,48.9,192.88Z"/><path class="cls-1" d="M50.87,194.29c.81.2,1.5.51,1.43,1.54C51.72,195.42,51,195.1,50.87,194.29Z"/><path class="cls-1" d="M54,227.46c0,.16-.08.31-.13.47-1.17.65-2,1.91-3.49,2-.48-2.33-1-4.65-1.5-7.29C51.35,223.8,51.89,226.51,54,227.46Z"/><path class="cls-1" d="M239.72,198.26c-.15-.21-.43-.43-.48-.69s.27-.36.46-.19a4.59,4.59,0,0,1,.55.74Z"/><path class="cls-1" d="M71.9,217.89l4.37-3.65c.49-.4.85-1.24,1.58-1s.37,1.15.51,1.75.28.93.42,1.39c.08,4.49.07,9,.27,13.47.1,2.35-1.29,2.6-3,2.54s-3.59.54-3.78-2.28C72,226,71.8,222,71.9,217.89Z"/><path class="cls-1" d="M227.08,72.44A7,7,0,0,1,228.39,68a18.84,18.84,0,0,1,6.83-5.66c3.34-1.45,6.26-.78,8.42,1.94,2.32,2.9,2.26,5.73,0,8.82-2,2.71-4.61,4.32-7.55,5.8C232.53,80.72,226.73,76,227.08,72.44Z"/><path class="cls-1" d="M211.14,129.41c-6.58-2.63-13.53-3.65-20.49-4.57-.74-.34-.77-.93-.26-1.38,1.81-1.57,3.6-3.28,6.35-2.57a82.16,82.16,0,0,1,25.8,7.71,2.34,2.34,0,0,1,1.39,3.27c-.69,1.52-2,1.83-3.56,1.12A45.59,45.59,0,0,0,211.14,129.41Z"/><path class="cls-1" d="M196.74,120.89a8.14,8.14,0,0,0-6.09,4l-.49.14c-4.31-.78-8.63-.48-12.95-.15-.82-1.5-3.19-2.12-2.53-4.46l.55-.43c6.38-.13,12.76-.61,19.11.44C195.15,120.52,196,120.35,196.74,120.89Z"/><path class="cls-1" d="M218.11,93c.51,1.79-1.15,2.11-2,3l-2.58-4.36C215.47,91.37,216.74,92.34,218.11,93Z"/><path class="cls-1" d="M177.14,80.92c1.45-.69,3-.37,4.5-.4C180.2,81.33,178.64,80.77,177.14,80.92Z"/><path class="cls-1" d="M186.72,80.56a8.25,8.25,0,0,1,4,.36C189.36,80.8,188,81.27,186.72,80.56Z"/><path class="cls-1" d="M85.27,133a58,58,0,0,0,21.54,5c6.4.88,12.69,0,18.94-1.26a76.69,76.69,0,0,0,19.35-6.92c4.88-2.45,9.74-5,15.07-6.34q3.86.12,3.52,3.89L153.33,131a19.8,19.8,0,0,1-5.6.74c-3.1,0-4.78,2.19-5.92,4.82a74.14,74.14,0,0,1-24.14,6.38c-9.12,1-18-.41-26.82-2.53a116.65,116.65,0,0,1-16.21-6.75c-1.62-.86-3-1.85-2-3.81s2.67-1.4,4.29-.58A43.28,43.28,0,0,0,85.27,133Z"/><path class="cls-1" d="M182.23,163.78a3.52,3.52,0,0,1,3.39,0Z"/><path class="cls-1" d="M211.07,178.55c-.95.15-1.93.63-2.73-.2-.07-.07.06-.52.2-.59C209.57,177.25,210.31,177.9,211.07,178.55Z"/><path class="cls-1" d="M163.69,127.29c-.91-1.53-1.49-3.37-3.52-3.89a30.22,30.22,0,0,1,7.54-2,6.42,6.42,0,0,1,3.54,4Z"/><path class="cls-1" d="M171.25,125.45c-1.63-.94-2.55-2.5-3.54-4a20.37,20.37,0,0,1,7-1.08,5.59,5.59,0,0,0,2.46,3c.94.49.68.94.07,1.45Z"/><path class="cls-1" d="M141.81,136.53c-1-1.1-.47-1.81.35-2.86,3.07-3.9,7.23-2.74,11.17-2.7A77.34,77.34,0,0,1,141.81,136.53Z"/><path class="cls-1" d="M146.25,217.4c-.95,3.89-1.07,7.9-1.81,11.82-.22,1.2.17,3-2,3.16-3.06.18-5.12-.7-5.68-2.86-1.12-4.26-2-8.58-3-12.86-.49-2.1-1-4.19-1.64-6.75a32.87,32.87,0,0,0-2.27,7.22c-1.08,4.19-2.11,8.39-2.93,12.63-.34,1.72-1.06,2.09-2.67,2-5-.2-5-.14-5.42-5-.5-5.3-1.08-10.59-1.62-15.88.16-.65-.06-1.38.46-1.94.69.39,1.42,0,2.11.13l.18.09.11-.2c-.45.14-.6-.25-.85-.47a4.28,4.28,0,0,1-2.7-2.16c3.42.93,6.58.61,9.65,2a58.84,58.84,0,0,0,2.5-10.21c.28-1.78,1-2.35,2.76-2.29,5.24.18,4.21-.68,5.38,4.3,1,4.42,2,8.85,3.43,13.28.67-4.76,1.32-9.51,2-14.26.28-1.89.6-3.77,1-5.64.2-.94-.52-2.55,1-2.63a9.06,9.06,0,0,1,5.51,1.07c.66.42.18,1.23.08,1.86q-1.74,10.69-3.47,21.38C146.29,215.9,146.3,216.66,146.25,217.4Z"/><path class="cls-1" d="M165,214.32a18.55,18.55,0,0,1-3,0c-2.46-.33-2.43,1.64-2.84,3.08-.14.49.9,1.29.11,1.73s-1.29-.49-1.89-.89c-.41-.27-.79-.56-1.53-1.08a3.61,3.61,0,0,0,1.42,2.2c.51.55,1.51,1.05,1.52,1.59.06,4.63,4.31,4.51,6.89,6.26.28.19.54.4.8.6.61-.06.25-1.32,1.19-1,1.43,2.36,1,3.67-1.48,4-3.75.53-7.53.91-11.29,1.32-1.59.17-2.43-.61-2.75-2.18-.66-3.19-.29-6.43-.6-9.63.06-6.74.08-13.47.2-20.21.05-2.32.35-4.63.58-6.95a2.72,2.72,0,0,1,3-2.72c4.32-.06,8.64-.06,12.95-.12,1.07,0,1.54.41,1.41,1.48-.07.66-.14,1.33-.17,2-.1,2.33-1.13,3.42-3.61,3.14a28.52,28.52,0,0,0-4.21.23c-1.05,0-1.44.6-1.5,1.58-.15,2.57-.29,5.14-.53,7.7-.14,1.46.4,2,1.81,1.79.49-.07,1-.17,1.48-.22,4-.45,4.17-.17,4.23,3.79C167.22,213.64,166.2,213.91,165,214.32Z"/><path class="cls-1" d="M125.07,204.73c.2,1.18-.27,1.75-1.5,1.48a18,18,0,0,1-6.47-2.47c-1-.71-2.9-10.33-2.13-11.33a2.39,2.39,0,0,1,1.26-.68c1.6-.44,3.21-.82,4.82-1.21a1.49,1.49,0,0,1,2.09,1.41Q124.1,198.33,125.07,204.73Z"/><path class="cls-1" d="M175.62,197.87a8.57,8.57,0,0,1,1.71-4.85c.33-.38.84-.71,1.32-.4s.14.9-.06,1.31c-.81,1.64-1.64,3.26-2.47,4.88C175.23,198.88,175.41,198.38,175.62,197.87Z"/><path class="cls-1" d="M119.22,208.51l2,.44c.06.89-.43.74-1,.51a6.23,6.23,0,0,1-2.59-.5Z"/><path class="cls-1" d="M175.62,197.87l.5.94c-.13.37-.36.94-.74.59S175.25,198.34,175.62,197.87Z"/><path class="cls-1" d="M167.73,226.87l-1.19,1c.57-1.18-.71-1.71-1-2.86A4,4,0,0,1,167.73,226.87Z"/><path class="cls-1" d="M168.75,225.47c-.05.32-.16.74-.54.49a2.16,2.16,0,0,1-.84-1.09c-.14-.45.37-.44.65-.43C168.65,224.47,168.76,224.94,168.75,225.47Z"/><path class="cls-2" d="M182.9,204.6c.93,2.32.95,4.55,1.27,6.72.18,1.23-.66,1.54-1.68,1.59-1.33.07-1.18-.77-1-1.65C181.83,209.11,181.77,206.86,182.9,204.6Z"/><path class="cls-1" d="M207.12,209.84,205,211.4a3.51,3.51,0,0,1,2.14-2.23A.43.43,0,0,1,207.12,209.84Z"/><path class="cls-1" d="M207.12,209.84l0-.67c.33-.33,1-.9,1.1-.56C208.47,209.31,207.58,209.5,207.12,209.84Z"/><path class="cls-1" d="M72.19,211.58a6.27,6.27,0,0,1-.3-3.09c0-3.16.14-3.18,3.12-1.81,1.73.8,1.64,1.49.31,2.51Z"/><path class="cls-1" d="M120.26,209.46l1-.51c.47,0,1.3.19,1.07.56C121.77,210.35,120.94,209.87,120.26,209.46Z"/></g></g></svg>