<?xml version="1.0" encoding="utf-8"?>
<!-- Generator: Adobe Illustrator 25.3.1, SVG Export Plug-In . SVG Version: 6.00 Build 0)  -->
<svg version="1.1" id="Camada_1" xmlns="http://www.w3.org/2000/svg" xmlns:xlink="http://www.w3.org/1999/xlink" x="0px" y="0px"
	 viewBox="0 0 296.4 260.9" style="enable-background:new 0 0 296.4 260.9;" xml:space="preserve">
<style type="text/css">
	.st0{fill:#9093AB;}
	.st1{fill:#F9F9F9;}
</style>
<g id="Camada_2_1_">
	<g id="Camada_1-2">
		<path class="st0" d="M280.4,191c5.2,2.7,7.4,6.6,6.6,11.5c-0.5,3-2.4,4.6-4.8,5.9c-1.5,0.8-2,1.8-1.3,3.6
			c1.4,3.4,2.6,6.9,3.9,10.4c0.4,1.9,1.1,3.8,2.1,5.4c0.9,1.7,0.6,2.6-1.5,2.6c-1.5,0.1-3,0.5-4.4-0.3c-1.5-0.4-1.8-1.8-2.3-3.1
			c-1.5-3.8-3-7.7-4.3-11.7c-0.1,4.7,0.1,9.3-0.1,13.8c-0.2,0.9-0.1,1.8-0.9,2.5c-1.8,1-3.7,0.7-5.6,0.5s-2.4-1.7-2.4-3.3
			c-0.2-3.8-0.1-7.6,0.2-11.4c-0.3-1.6,1.7-2.5,0.9-4.4c-2.5-6.5-0.3-13.1-0.4-19.7c-0.1-1.5,0.9-2.8,2.3-3.2
			c3.5-1.1,7.2-1.1,10.8-0.1C279.8,190.2,280.2,190.6,280.4,191z"/>
		<path class="st0" d="M296.1,239.3v1.1c0,0.4-0.4,0.7-0.9,0.7c-0.6,0-1.2,0-1.7,0c-84.3,0-168.6,0-252.9,0c-1.3-0.1-2.6-0.4-3.8-1
			c-0.7-0.4-1.3-0.8-0.4-1.7c1.4-0.4,2.8-0.5,4.2-0.3h131.1c1.3,0.1,2.7,0,4-0.3c12.2,0,24.3,0,36.5,0c3,0,5.9,0.7,8.9,0
			c19.1,0.1,38.2-0.1,57.3,0.8c5.2,0,10.4,0,15.6,0C294.7,238.7,295.7,238.2,296.1,239.3z"/>
		<path class="st0" d="M18.9,231.4l-0.1,0.9c-2.9-0.5-3.6-3.7-6.1-5c-0.1,1.7,1.5,2.5,1.6,3.9c-2.9-0.4-4.8-3.4-5.4-8.3
			c-0.2-1.7-0.2-3.3,0-5c0.3-1.4,0-3,1.2-4.1c0.8-0.4,1.8,0.1,2.6-0.4c4.2,0.1,4.2,0.1,4.7,4.3c0,1.2,0.2,2.3,0.3,3.5
			c0.1,0.7,0.5,1.6,1.4,1.5c0.8-0.1,1.4-0.7,1.5-1.5c0.3-0.8,0.4-1.6,0.5-2.4c0-5,0-10-0.1-15c0.1-3.7,0.1-7.3,0.2-11
			c0-1.6,0.5-2.8,2.5-2.5c1.7,0.3,4.2-1,4.5,2.4c0.4,4.8,0.5,9.7,0.8,14.5c0.2,3.8,0.2,7.7,0.1,11.6c-0.2,2.3-0.5,4.6-1.1,6.9
			c-0.7,3-2.8,4.8-5.7,5.7c-0.9,0.4-2,0.2-2.7-0.5c-0.5-0.3-0.9-0.7-1.3-1.1l0-0.1c0,0,0,0.1,0,0.1
			C18.7,230.2,18.7,230.8,18.9,231.4z"/>
		<path class="st0" d="M0,238.9h24c0.6,0.6,1.9,0.6,1.5,2H0V238.9z"/>
		<path class="st0" d="M278.5,238.6v-0.2c5.3,0,10.6-0.1,15.9,0c0.6,0,1.8-0.6,1.7,0.9c-0.8-0.9-1.9-0.5-2.8-0.5
			C288.4,238.7,283.4,238.7,278.5,238.6z"/>
		<path class="st0" d="M281,230.4c0-0.1,0-0.2,0-0.3c1.4,0.8,3,0.2,4.5,0.4C284,231.2,282.4,231.1,281,230.4z"/>
		<path class="st0" d="M258.3,61.5c5.5,9.1,10,18.8,13.4,28.9c5.9,18.3,7.7,37.6,5.4,56.7c-1.2,10.1-3.7,20-7.2,29.5
			c-0.2,0.5-0.3,1.1-0.4,1.7c-0.2,0.4-0.5,0.4-0.8,0.4c-8.2,1-16.5,0.7-24.8,0.7c-4.1,0-8.1,0-12.2,0s-4.6-1.1-2.7-4.6
			c5.3-9.8,8.8-20.6,10.3-31.6c1.8-13,0.7-26.2-3.1-38.7c-1.7-5.6-3.9-11-6.5-16.2c-0.5-0.8-0.9-1.8-1-2.8c0.1-1.6,1.3-1.5,2.4-1.5
			c8.9,0,14.6-5,18.4-12.3c2-3.9,1.1-8-2-11.3s-7.1-4.5-11.4-3c-6.4,2.4-11.3,6.6-13.8,13.2c-0.4,0.9-0.5,2-1.8,2.1
			c-1.3-0.2-2-1.2-2.7-2C203,54.3,185,43.9,163.3,40.2c-17.5-3-35.5-0.8-51.7,6.4c-19.5,8.4-34.2,22.4-44.4,41
			c-5.7,10.7-9.3,22.4-10.4,34.4c-1.7,17,1.5,33.1,8.6,48.6c0.9,1.9,2.1,3.6,2.8,5.6s0.3,2.8-1.8,3.1c-0.7,0.1-1.3,0.1-2,0.1
			c-11.7,0-23.4,0-35.2-0.2c-0.8,0.1-1.7,0-2.4-0.4c-0.9-1-1.5-2.2-1.8-3.5c-6.1-16.8-8.6-34.7-7.4-52.6C19.5,93.3,30,67.2,49.4,45
			C72,19,103.9,2.9,138.3,0.4c18.1-1.5,36.4,0.8,53.5,6.9c18,6.5,34.2,16.2,47.8,30c3.4,3.5,7,6.7,9.8,10.6c0.1,0.2,0.3,0.4,0.3,0.7
			c0.2,5.6,2.9,9.4,7.9,11.6C258.1,60.5,258.4,61,258.3,61.5z"/>
		<path class="st0" d="M217.6,180.8h44.9l30.9,0.1c0.7,0,1.3,0,2,0s1,0.4,1,1.1s-0.1,1.4-1,1.3c-1.7,0-3.3-0.1-5-0.1
			c-10-0.2-20-0.4-29.9,0c-4.8,0.2-9.6,0.3-14.4,0.3c-40,0-80,0-120,0c-1,0-2,0-3,0c-2.6-0.1-2.9-0.7-1.4-3c1-0.6,2.2-0.9,3.3-0.7
			c19.1,0.1,38.1-0.1,57.2,0c1.5,0.5,3,0,4.4,0c9.2,0,18.4,0,27.5,0C215.4,179.9,216.6,179.8,217.6,180.8z"/>
		<path class="st0" d="M10,180.8h2.5c0.8-0.7,1.9-1,3-0.9c6.8,0,13.6,0.1,20.4,0c1.1-0.1,2.1,0.3,3,0.9l40.2,0.1
			c2.1,0,4.2,0.1,6.2,0.1c0.1,1.6-0.8,2.2-2.2,2.6c-15.3,0.2-30.7,0.4-46.1-0.1c-10.4-0.3-20.7-0.2-31-0.3c-1.5,0.1-3,0.1-4.4,0.2
			c-0.9,0-1.6-0.2-1.5-1.4s0.7-1.1,1.5-1.1C4.4,180.9,7.2,180.8,10,180.8z"/>
		<path class="st0" d="M6.1,183.2c1-0.6,2.1-0.3,3.2-0.3c24.9,0,49.7,0,74.6,0c2.1-1.3,4.4-0.9,6.7-0.9c1.6,0.5,3.3,0,4.9,0
			c5.3-0.1,10.5-0.2,15.8,0c1.1,0.2,2.2-0.3,2.6-1.3c2.4-1.1,5.2-1.1,7.6,0l0.3,0.4c-1.2,2.1,0.3,1.9,1.7,1.9c24.3,0,48.5,0,72.8,0
			c30.3,0,60.7,0,91,0c1.1,0,2.2-0.3,3.2,0.3l-7.4,0.1h-23.4c-0.6,0.7-1.5,1-2.5,1c-13.3,0-26.6,0.2-40-0.1c-1.3,0.1-2.7,0.2-4,0.1
			c-33.3,0-66.7,0-100,0c-1.7-0.2-3.5-0.2-5.2-0.1c-8.4,0-16.7,0.2-25.1-0.1c-15,0.3-30,0.1-44.9,0.1c-1.1,0.1-2.2-0.2-3-1H11.5
			L6.1,183.2z"/>
		<path class="st0" d="M213,243.9c-6.5,3.4-13.2,6.5-20,9.1c-10.6,3.9-21.7,6.4-33,7.4c-25,2.4-50.1-2.6-72.3-14.4
			c-1.4-0.7-2.8-1.4-4.2-2.1c-0.1-0.4,0-0.6,0.4-0.7c0.7,0,1.3,0,2,0c41.6,0,83.1,0,124.7,0C211.3,243.2,212.6,242.3,213,243.9z"/>
		<path class="st0" d="M213,243.9c-0.7-0.9-1.7-0.5-2.6-0.5c-41.5,0-82.9,0-124.4,0c-0.9,0-1.8-0.4-2.6,0.5l-1.8-0.8H214
			C214,243.7,213.4,243.7,213,243.9z"/>
		<path class="st1" d="M277,197.6c1.4,0.3,3.3,0.4,3.5,2.7c0.1,1.8-1.8,3.4-3.8,3.5s-2.3-1.3-2.3-3S274.3,197.5,277,197.6z"/>
		<path class="st0" d="M273.6,228.9c0.6,0.7,0.6,1.8-0.1,2.5C273.5,230.6,273.6,229.7,273.6,228.9z"/>
		<path class="st0" d="M32.4,238.9h3.5l4,1.9h-6C33.2,240.3,32,240.3,32.4,238.9z"/>
		<path class="st0" d="M44.3,230.5c-5.8-0.8-10.7-5.4-12.3-11.9c-1.1-4.5-1.2-9.1-0.4-13.6c0.7-3.9,2.8-7.5,5.8-10.2
			c0.8-0.3,1.7-0.1,2.3,0.6c0.5,0.5,0.9,1.1,1.1,1.8c0,0.7,0.2,1.4,0.6,1.9c1.3,1.5,1.7,3.5,1.1,5.4c-1,4.5-1.1,9.1-0.2,13.6
			c0.1,0.5,0.1,1-0.1,1.5c-0.3,0.4-0.5,0.8,0.3,0.9c0.7,0.3,1.3,0.9,1.5,1.7c0.7,1.9,1.2,4,1.4,6C45.6,229.1,46,230.4,44.3,230.5z"
			/>
		<path class="st0" d="M38.9,193.3c3.1-1.6,6.6-2.1,10-1.3c0.2,0.2,0.4,0.5,0.5,0.7c0.4,0.4,0.8,0.6,1.3,0.8
			c0.3,0.1,0.5,0.3,0.7,0.6c0.4,0.5,0.8,0.9,1.4,1.2c0.4,0.1,0.7,0.3,1,0.7c0.5,0.5,0.5,1.4,1.1,1.9c3.9,3.2,4,7.7,4.2,12.1
			c0.2,3.9-0.4,7.8-1.8,11.5c-0.5,0.4-1.3,0.4-1.7-0.2c0,0-0.1-0.1-0.1-0.1c-1.7-1.9-3.6-3.6-4.4-6.2c-0.3-3.3,0-6.6-0.9-9.8
			c-0.4-1.9-1.7-3.6-3.5-4.5c-2.6-1.4-5.3-2.6-7.3-4.9c-0.5-0.4-0.9-0.8-1.2-1.3C38.4,194,38.5,193.5,38.9,193.3z"/>
		<path class="st0" d="M51.9,214.8c1.2,2.6,3.1,4.9,5.5,6.6l-0.4,1.5c0.3,2.1-0.9,4.2-2.9,4.9c-2-0.1-2.7-1.7-3.8-2.9
			c0,1.7,1,3.2,0.6,4.9c-0.1,0.2-0.3,0.4-0.5,0.5l-5,0.6l-1.1-0.4c1.3-1.5,0-2.9-0.1-4.4s-0.9-2.8-0.7-4.3c2-0.3,4,0.1,5.8-0.9
			c0.3,0,0.7,0,1,0.2c-0.4-0.4-0.6-0.9-0.5-1.5c0.2-1.6,0.7-3.2,1.4-4.6C51.4,214.8,51.7,214.7,51.9,214.8z"/>
		<path class="st0" d="M38.3,194.4l1.1,1c0.2,0.1,0.2,0.3,0.2,0.4s-0.1,0.2-0.2,0.2c-0.7-0.3-1.1-1.1-2-1.1
			C37.6,194.5,38,194.3,38.3,194.4z"/>
		<path class="st0" d="M240.1,193.9c2.9,2.3,4.5,5,4,8.9c-0.2,2.5-0.2,5.1,0,7.6c-0.2,5.9-0.4,11.8-0.5,17.7
			c-0.1,3.2-0.3,3.4-3.5,3.2c-0.8-0.1-1.6-0.3-2.5-0.3c-1.4,0-1.8-0.7-1.8-2.1c0-3.3-0.2-6.7-0.1-10c0-1.9-0.6-2.9-2.6-2.5
			c-0.5,0.1-1,0.1-1.5,0.1c-2.3,0-3.3,0.8-3.2,3.4c0.2,3.1-0.2,6.3-0.2,9.5c0,1.8-0.8,2.3-2.3,2.5c-1.2,0.1-2.5,0.3-3.7,0.5
			c-0.7-2.6-0.5-5.3-0.5-8c-0.2-10.1-0.3-20.1-0.5-30.2c-0.1-2.2,0.6-3.1,2.7-3c0.3,0,0.5-0.1,0.7-0.1c4-0.6,4.1-0.5,4,3.5
			c-0.1,4.4-0.1,8.8-0.2,13.2c0,1.4,0.2,2.2,2,1.7c1.4-0.3,2.8-0.6,4.2-0.8c1-0.4,0.7-1.4,0.7-2.1c0-2.8,0-5.6,0-8.4
			c-0.2-1.3,0.1-2.6,0.7-3.8c-0.9-1-1.4-2.3-0.5-3.1s1.7,0.7,2.6,1S239.9,192.8,240.1,193.9z"/>
		<path class="st0" d="M246.5,208.9c0.4-5.1,0.3-10.2,0.9-15.4c0.2-2.1,1.3-2.9,3.2-3c2.6-0.1,5.3-0.1,7.9-0.2c1.7,0,3.3,0.1,5,0.1
			c1.1,0,1.5,0.4,1.3,1.5c-0.1,0.5-0.2,1-0.2,1.5c-0.5,3.6-0.5,3.6-4.1,3.6h-0.2c-4.9,0-5,0-5.2,4.9c0,1.5-0.2,3-0.4,4.5
			c-0.2,1.5,0.3,2.2,1.9,2c0.6-0.1,1.1-0.2,1.7-0.2c3.7-0.4,3.9-0.1,3.9,3.6c0,1.5-0.4,2.4-2,2.4c-0.7,0-1.5,0.2-2.2,0.2
			c-3.4,0.1-3.5,0.2-3.3,3.8c0.1,1.6-0.6,1.2-1.4,0.8c-0.6-0.2-0.9-0.1-0.6,0.6c1.3,1.3,2.5,2.7,2.1,4.7c-0.1,0.5,0.1,1.2,0.6,1.1
			c2.4-0.3,4,1.4,6,2.1c1.1,0.4,0.5-0.5,0.4-0.9c1.2-0.7,1.6,0.1,1.8,1c0.4,2.1-0.3,3.3-2.6,3.5c-2.8,0.2-5.6,0.7-8.3,1.1
			c-5.3,0.2-5.1,0.2-5.6-5.3C246.4,220.8,246.8,214.8,246.5,208.9z"/>
		<path class="st0" d="M263.4,227.5c-0.6-0.4-0.9-1.2-1.8-1l-0.6-1.6l1.1-0.5c0.8,0.3,1.5,1,1.8,1.8L263.4,227.5z"/>
		<path class="st0" d="M263.9,226.2c-0.8-0.3-1.5-1-1.8-1.8C263.5,224.2,264.2,224.7,263.9,226.2z"/>
		<path class="st0" d="M32.4,238.9l1.5,2h-8.5l-1.5-2H32.4z"/>
		<path class="st0" d="M229,85c-2.7-4.3-5.4-8.5-8.5-12.5c1.1-3.1,2.4-6.2,4.7-8.7c4.1-4.4,8.7-8,15.2-7.9c7.5,0.2,13.4,9.4,10,16.1
			c-3,6.2-8.6,10.8-15.3,12.7C233.1,85.3,231,84.3,229,85z"/>
		<path class="st0" d="M249,49c3.2,3.7,6.1,7.7,8.6,11.9C252.2,59.3,249.1,55.2,249,49z"/>
		<path class="st0" d="M207.2,74.4c-2.4-1.4-5-1.5-7.6-2c-1.8-0.2-3.5-0.9-5-1.9c-14.2-11.2-32-16.7-50-15.6
			C122.3,56,104,65.3,89.7,82.3c-1.5,1.8-2.8,2.6-4.9,1.2c-0.6-0.3-1.2-0.5-1.9-0.7c-1.7-0.9-0.5-1.8,0.1-2.5
			C89.4,72,97.4,65,106.4,59.7c14.2-8.4,30.6-12.3,47-11.2c20.7,1.4,38.5,9.5,53.2,24.1C207.1,73.1,208.1,73.5,207.2,74.4z"/>
		<path class="st0" d="M96.3,97.5c-6.6-1.3-12.8-4-19-6.5c-1.2-0.7-2.5-1.3-3.7-2.1c-1.2-0.5-1.7-1.9-1.1-3c0-0.1,0.1-0.1,0.1-0.2
			c0.7-1.4,2-1.6,3.4-1s2.6,1.2,3.8,1.7c11.9,6.1,25.3,8.7,38.6,7.3c10.3-1,19.9-4.5,29-9.3c12-6.3,25.4-9.3,38.9-8.9
			c8.4,0.4,16.7,1.9,24.7,4.3c3.4,1.3,6.9,2.7,10.3,4.1c1.7,0.7,3.4,1.7,2.4,3.8s-2.9,1.7-4.6,0.7c-0.4-0.2-0.7-0.3-1.1-0.5
			c-8.6-4-17.9-6.4-27.4-7c-1.3-0.6-2.7,0-4-0.4h-5.1c-1.5,0.5-3-0.2-4.5,0.4c-8.1,0.4-16.1,2.5-23.4,6c-0.2,0.6-0.7,1.2-1.2,1.5
			c-7.8,3.7-15.4,7.7-24,9.3c-9.1,2.9-18.4,2.5-27.8,1.5C99.1,99.1,97.6,98.5,96.3,97.5z"/>
		<path class="st0" d="M74.7,94.5c1.2,0.7,2.5,1.4,3.8,1.9s1.3,1.1,0.8,2.2c-3.4,7.2-5.6,14.9-6.5,22.9c0,1.6-0.9,3.2-2.3,4
			c-3.6,2.3-3.4,8.3,0.1,11c0.9,0.7,1.8,1.2,2,2.6c1.2,11.3,4.9,22.1,10.8,31.8c-3.2-0.8-5.6-2.4-8.5-2.9c-0.9-0.1-1.1-1.4-1.5-2.2
			c-3.2-6.9-5.4-14.1-6.6-21.6c-0.1-0.3-0.2-0.6-0.3-0.9c-0.7-6.1-0.9-12.3-0.5-18.4c0.7-10,3.3-19.9,7.5-29
			C73.7,95.3,73.9,94.6,74.7,94.5z"/>
		<path class="st0" d="M202.6,165.8c6.7,1.6,13.2,3.8,19.5,6.5c1.2,0.8,2.4,1.6,1.9,3.4s-2,1.7-3.4,1.7c-2.4-0.1-4.6-1.2-6.8-2.1
			c-5.9-2.3-12-3.8-18.2-4.5c-1.1-0.1-2.1-0.5-3.2-0.6c-10-0.8-19.9-0.5-29.6,2.5c-4.7,1.5-9.2,3.4-13.5,5.7
			c-4.2,2.2-8.8,1.4-13.2,1.2c-0.6,0-1.2-0.3-1.4-0.9c-0.2-0.8,0.4-1.2,0.9-1.6c0.1-0.1,0.3-0.2,0.4-0.3
			c10.8-4.5,20.9-10.9,32.7-12.6c3.6-0.7,7.2-1,10.9-1.2c0.9,0.1,1.7-0.3,2.6-0.1c1.1,0.3,2.3,0.3,3.5,0c4.7,0.1,9.5,0.5,14.1,1.4
			C200.9,164.6,201.9,165.1,202.6,165.8z"/>
		<path class="st0" d="M228.5,150.8c-1.5,4.9-3.2,9.8-5.2,14.5c-0.7,1.6-1.4,2.6-3.2,1.3c-0.5-0.3-1-0.5-1.6-0.7c-2-0.4-2-1.3-1.2-3
			c3.4-7.1,5.5-14.6,6.4-22.4c0.2-1.7,0.5-3.1,2.3-4.3c3.7-2.3,3.4-8.1-0.1-11c-0.7-0.6-1.8-0.8-1.9-2.1c-0.9-7.6-2.7-15-5.5-22.2
			c0.4-2.8,3-4.7,5-3.6c4.4,9.7,6.9,20.2,7.1,30.9C230.8,135.8,230.1,143.4,228.5,150.8z"/>
		<path class="st0" d="M73.4,172.9c0.9-0.3,2-0.3,2.9,0.2c3.5,1.9,7.1,3.5,10.8,4.9c0.4,0.1,0.7,0.5,0.7,0.9c-3,0-6.1-0.1-9.2-0.1
			c-1.4,0-2.8-0.3-4-1C72,176.4,71.8,175.3,73.4,172.9z"/>
		<path class="st0" d="M93.8,180.8h19.4c0.2-0.1,0.4,0,0.5,0.1c0,0,0,0,0,0l1.5,2.1c-8.5-0.8-16.5,0-24.4-0.2
			c-0.4-1.7,1.1-1.4,1.9-1.9L93.8,180.8z"/>
		<path class="st0" d="M223.6,97.4c-2.4,0.2-3.7,1.9-5,3.6l-0.4-0.1c-1.5-0.9-2.3-2.7-2.1-4.5c0-0.2,0-0.3,0-0.5
			c0.2-1.3,1.2-2.1,2-3l0.5-0.1C221.1,93.5,223.2,94.5,223.6,97.4z"/>
		<path class="st0" d="M92.8,181c-0.7,0.6-1.6,1-1.9,1.9h-7l1.4-1.9H92.8z"/>
		<path class="st0" d="M252.5,219.4l-2.1-1.8c1.5-0.4,2,0.6,2.6,1.2L252.5,219.4z"/>
		<path class="st0" d="M186.1,229.4c-0.2-3.2-1.2-6.4-1-9.6c0.1-0.9-0.4-1-1.2-1c-2.9,0.2-4,1.1-4.2,4.1c-0.2,1.8-0.3,3.6-0.6,5.4
			c-0.4,2.3-2.1,3-5.6,2.6c-2.4-0.2-1.9-1.8-1.8-3.3c0.3-4.4,1.5-8.7,1.6-13.1c0.7-2.3,0.2-5,1.2-7.1c2.2-4.7,3.1-10.1,6.3-14.3
			c2.3-3.1,6.2-2.7,9.6-3.4c0.7-0.2,0.9,0.7,0.9,1.2c0.1,1.2,0.1,2.3,0,3.5c-0.7,4.3-0.1,8.6,0.1,12.9c-0.3,6.1,0.6,12.1,1.4,18.1
			c0.5,3.5,0,4.2-3.7,4.4C188,229.9,187,230.2,186.1,229.4z"/>
		<path class="st0" d="M203.6,199.9c-1.2-1.3-2.8-0.6-4.2-0.6c-2.3-0.1-3.7-0.6-4-3.4c-0.5-4.8-0.8-4.8,4.1-5s9.8-0.4,14.6-0.6
			c1.5,0,3,0.1,4.5,0s2,0.7,2,2.2c0,3.4-1.2,4.9-4.6,5.5c-4.2,0.7-4.3,0.7-4.4,5c-0.2,8.5-0.5,17-0.6,25.5c0,2.2-0.6,3.3-3.1,3.2
			c-4.8-0.2-4.8,0-4.8-4.9c0-5.2-0.2-10.3,0.1-15.5C203.5,207.4,203.7,203.7,203.6,199.9z"/>
		<path class="st0" d="M93.8,203.9c0,6,0,12,0,18c0,1.1,0,2.2,0,3.3c-0.4,1,0,2.1-0.4,3.1c-0.3,3.1-2.6,2.5-4.6,2.6
			c-1.8-0.1-2.3-1.5-2.9-2.7c-2.3-5.2-4.4-10.5-6.6-15.8c-0.2-2.4,1.5-3.6,4.2-2.7c1.7,0.6,3.1,0.7,4.5-0.6c1-0.9,1.9-1.6,1.1-3.1
			c-0.2-0.4,0.1-1,0.8-0.8c1.3-0.1,1-0.9,0.5-1.4c-0.8-0.9-1.7-1.7-2.5-2.5c-0.1-0.4,0-0.6,0.5-0.5c1.3,0.9,2.3,2.2,4,2.6
			C92.8,203.7,93.4,203.5,93.8,203.9z"/>
		<path class="st0" d="M238.5,192c-0.2-0.4-1.3-0.8-0.1-1.1c1.6-0.2,3.3-0.3,4.9-0.3c1,0,1.3,0.7,1.2,1.5c-0.1,1.1-0.2,2.3-0.4,3.9
			c-1-1.6-1.8-2.7-3.4-2.8C239.8,193.3,239,192.8,238.5,192z"/>
		<path class="st0" d="M236,194.5c0.8,0.4,1.5,1.1,2,1.9c-1,0.4-1.6-1.4-2.3-0.5c-0.4,0.5-0.2,1.6-0.2,2.4c0,2.9,0.1,5.8,0.1,8.7
			c0,0.8,0.3,1.8-1,1.9c1.1-3.7,0.2-7.5,0.5-11.3C235.1,196.4,234.9,195.2,236,194.5z"/>
		<path class="st0" d="M238.5,192l2.1,1.3l-0.6,0.6l-2-1.5L238.5,192z"/>
		<path class="st0" d="M93.4,228.4c0-1.1-0.3-2.1,0.4-3.1C93.7,226.3,94.1,227.4,93.4,228.4z"/>
		<path class="st0" d="M89.9,205.3c-0.1,0.1-0.3,0.3-0.3,0.4c0.3,1,2.3,1.8,0.3,2.9c-1.8,1.1-2.8,4-6,2.2c-2.4-1.4-3.5-0.8-4.6,1.7
			c-1,1.2-0.3,2.6-0.6,3.9c-0.4,0.1-0.8-0.2-0.9-0.6c0,0,0,0,0,0c-0.4-1.2-0.9-0.9-1.7-0.3c-1.3,0.9-2.2,2.7-4.2,2.4
			c-0.2-6-0.4-12-0.6-18c0-0.3,0.1-0.7,0.1-1c0.7-0.4,1.5-0.4,2.1,0c3.2,1.1,6.3,2.4,9.3,3.9c0.7,1.5,1.4,3,2.3,5.1v-6.2
			C86.6,203.9,88.6,204.1,89.9,205.3z"/>
		<path class="st0" d="M68.8,197.9c-0.2,2.1-2.5,1.6-3.5,2.7c0.1,0.1,0.2,0.3,0.2,0.3c3.3-0.3,3.4-0.3,3.3,3.2
			c-0.1,5.8,0.2,11.7-0.7,17.4c-0.4,3,1.3,6-0.3,8.9c-1.1-1.4-1.8-3.2-2.1-5c-1.5-6.9-3.6-13.7-4-20.8c0-0.5,0.1-1.2-0.4-1.6
			c-0.5-3-0.5-6.1,0-9.1c1.7,1.5,0.4,3.7,1.2,5.5c1.2-0.3,1.9-1.4,3-1.9C66.7,196.8,68,196.2,68.8,197.9z"/>
		<path class="st0" d="M61.4,202.9c1.7,2.9,1.6,6.2,2.4,9.3c1.5,5.2,1.9,10.8,3.9,15.9c0.2,0.7,0.2,1.5,0.1,2.2c-1.9,0.7-4,1-6,1
			c-0.5-0.4-0.8-0.9-0.8-1.6c0-2.8,1-5.6,0.3-8.4C61.4,215.2,61.4,209.1,61.4,202.9z"/>
		<path class="st0" d="M82.9,202.8c-0.6,0.8-1.2,0.2-1.8-0.1l-9.7-3.9c0-1-0.1-2-0.1-3c0-1.2-1-2.8,0.6-3.5s3.4-1.3,5.4-0.3
			c1.8,0.7,3,2.3,3.4,4.1C81.3,198.5,82.2,200.6,82.9,202.8z"/>
		<path class="st0" d="M68.8,197.9c-2.4-1.3-3.6,0.7-5.1,1.9c-0.6,0.5-1,1.6-1.9,1.2s-0.4-1.5-0.5-2.2c-0.1-1.6,0-3.3-0.1-4.9
			c-0.3-1.7,0.3-2.4,2.2-2.5c6.1-0.3,6.1-0.4,5.7,5.8c0,0.2,0,0.5-0.1,0.7L68.8,197.9z"/>
		<path class="st0" d="M93.8,192.4c0,2.2,0,4.3,0,6.5c-0.8,1.1-2.3,1.5-3.5,1c-1.3-1.1-2.6-2.2-3.9-3.3c-0.8-0.5-1.2-1.4-1-2.3
			C88.1,193.3,90.7,191.8,93.8,192.4z"/>
		<path class="st0" d="M93.8,192.4c-2.8,0.9-5.4,2.4-8.4,2c0-0.8-0.1-1.7-0.1-2.5c1.7-1.8,7.2-2.1,8.7-0.5L93.8,192.4z"/>
		<path class="st0" d="M90.3,199.9c1.1-0.6,2.3-0.9,3.5-1v5c-0.4,0.3-1,0.3-1.3-0.1c-0.1-0.1-0.1-0.2-0.2-0.3
			C93.1,201.4,90.8,201.2,90.3,199.9z"/>
		<path class="st0" d="M50.9,194.3l-0.3-0.4c-0.6-0.3-1.1-0.6-1.6-1.1c0-0.3,0-0.6,0-0.8c2.5,0.8,4.2,2.5,6,4.3
			c-0.4,0.4-1,0.4-1.4,0c0,0-0.1-0.1-0.1-0.1l-1.1-0.5C52,195.1,51.4,194.8,50.9,194.3z"/>
		<path class="st0" d="M61.8,230c-0.7-1.1-0.1-2.4-0.5-3.6l0.1-5C62.3,224.2,61.8,227.1,61.8,230z"/>
		<path class="st0" d="M88.3,200.9l-0.5,0.5c-1.2-0.7-2.1-1.7-2.6-2.9C86.5,198.9,87.6,199.8,88.3,200.9z"/>
		<path class="st0" d="M40.5,197.3c0.9,0.6,1.5,1.4,1.9,2.4l-2-0.8C39.7,198.3,40.3,197.8,40.5,197.3z"/>
		<path class="st0" d="M41.9,219.8c0,0.3,0.1,0.6,0.1,1c-0.2-0.1-0.4-0.2-0.6-0.3c-0.3-0.3-1-0.6-0.7-1.1S41.4,219.8,41.9,219.8z"/>
		<path class="st0" d="M48.9,192.9c0.7,0,1.3,0.4,1.6,1.1C49.5,194.3,49.2,193.5,48.9,192.9z"/>
		<path class="st0" d="M50.9,194.3c0.8,0.2,1.5,0.5,1.4,1.5C51.7,195.4,51,195.1,50.9,194.3z"/>
		<path class="st0" d="M54,227.5c0,0.2-0.1,0.3-0.1,0.5c-1.2,0.6-2,1.9-3.5,2c-0.5-2.3-1-4.6-1.5-7.3
			C51.3,223.8,51.9,226.5,54,227.5z"/>
		<path class="st0" d="M239.7,198.3c-0.1-0.2-0.4-0.4-0.5-0.7s0.3-0.4,0.5-0.2c0.2,0.2,0.4,0.5,0.6,0.7L239.7,198.3z"/>
		<path class="st0" d="M71.9,217.9l4.4-3.6c0.5-0.4,0.8-1.2,1.6-1s0.4,1.1,0.5,1.8s0.3,0.9,0.4,1.4c0.1,4.5,0.1,9,0.3,13.5
			c0.1,2.4-1.3,2.6-3,2.5s-3.6,0.5-3.8-2.3C72,226,71.8,222,71.9,217.9z"/>
		<path class="st0" d="M227.1,72.4c-0.1-1.6,0.4-3.2,1.3-4.4c1.8-2.4,4.1-4.3,6.8-5.7c3.3-1.5,6.3-0.8,8.4,1.9
			c2.3,2.9,2.3,5.7,0,8.8c-2,2.7-4.6,4.3-7.6,5.8C232.5,80.7,226.7,76,227.1,72.4z"/>
		<path class="st0" d="M211.1,129.4c-6.6-2.6-13.5-3.7-20.5-4.6c-0.7-0.3-0.8-0.9-0.3-1.4c1.8-1.6,3.6-3.3,6.4-2.6
			c9,1.1,17.7,3.7,25.8,7.7c1.2,0.4,1.9,1.7,1.5,2.9c0,0.1-0.1,0.2-0.1,0.3c-0.7,1.5-2,1.8-3.6,1.1
			C217.4,131.5,214.3,130.3,211.1,129.4z"/>
		<path class="st0" d="M196.7,120.9c-2.5,0.3-4.8,1.8-6.1,4l-0.5,0.1c-4.3-0.8-8.6-0.5-12.9-0.2c-0.8-1.5-3.2-2.1-2.5-4.5l0.6-0.4
			c6.4-0.1,12.8-0.6,19.1,0.4C195.1,120.5,196,120.3,196.7,120.9z"/>
		<path class="st0" d="M218.1,93c0.5,1.8-1.1,2.1-2,3l-2.6-4.4C215.5,91.4,216.7,92.3,218.1,93z"/>
		<path class="st0" d="M177.1,80.9c1.4-0.7,3-0.4,4.5-0.4C180.2,81.3,178.6,80.8,177.1,80.9z"/>
		<path class="st0" d="M186.7,80.6c1.3-0.2,2.7-0.1,4,0.4C189.4,80.8,188,81.3,186.7,80.6z"/>
		<path class="st0" d="M85.3,133c6.8,3,14.1,4.7,21.5,5c6.4,0.9,12.7,0,18.9-1.3c6.7-1.4,13.2-3.8,19.4-6.9c4.9-2.4,9.7-5,15.1-6.3
			c2.6,0.1,3.7,1.4,3.5,3.9l-10.4,3.6c-1.8,0.5-3.7,0.8-5.6,0.7c-3.1,0-4.8,2.2-5.9,4.8c-7.6,3.5-15.8,5.6-24.1,6.4
			c-9.1,1-18-0.4-26.8-2.5c-5.6-1.8-11-4.1-16.2-6.8c-1.6-0.9-3-1.9-2-3.8s2.7-1.4,4.3-0.6C79.6,130.8,82.4,132.1,85.3,133z"/>
		<path class="st0" d="M182.2,163.8c1.1-0.6,2.3-0.6,3.4,0H182.2z"/>
		<path class="st0" d="M211.1,178.5c-0.9,0.1-1.9,0.6-2.7-0.2c-0.1-0.1,0.1-0.5,0.2-0.6C209.6,177.2,210.3,177.9,211.1,178.5z"/>
		<path class="st0" d="M163.7,127.3c-0.9-1.5-1.5-3.4-3.5-3.9c2.4-1,5-1.7,7.5-2c1.7,0.8,3,2.2,3.5,4L163.7,127.3z"/>
		<path class="st0" d="M171.2,125.4c-1.6-0.9-2.6-2.5-3.5-4c2.3-0.8,4.6-1.1,7-1.1c0.4,1.3,1.3,2.3,2.5,3c0.9,0.5,0.7,0.9,0.1,1.4
			L171.2,125.4z"/>
		<path class="st0" d="M141.8,136.5c-1-1.1-0.5-1.8,0.4-2.9c3.1-3.9,7.2-2.7,11.2-2.7C149.7,133.1,145.8,135,141.8,136.5z"/>
		<path class="st0" d="M146.2,217.4c-0.9,3.9-1.1,7.9-1.8,11.8c-0.2,1.2,0.2,3-2,3.2c-3.1,0.2-5.1-0.7-5.7-2.9
			c-1.1-4.3-2-8.6-3-12.9c-0.5-2.1-1-4.2-1.6-6.8c-1,2.3-1.8,4.7-2.3,7.2c-1.1,4.2-2.1,8.4-2.9,12.6c-0.3,1.7-1.1,2.1-2.7,2
			c-5-0.2-5-0.1-5.4-5c-0.5-5.3-1.1-10.6-1.6-15.9c0.2-0.6-0.1-1.4,0.5-1.9c0.7,0.4,1.4,0,2.1,0.1l0.2,0.1l0.1-0.2
			c-0.4,0.1-0.6-0.2-0.8-0.5c-1.2-0.3-2.1-1.1-2.7-2.2c3.4,0.9,6.6,0.6,9.7,2c1.1-3.3,2-6.7,2.5-10.2c0.3-1.8,1-2.4,2.8-2.3
			c5.2,0.2,4.2-0.7,5.4,4.3c1,4.4,2,8.9,3.4,13.3c0.7-4.8,1.3-9.5,2-14.3c0.3-1.9,0.6-3.8,1-5.6c0.2-0.9-0.5-2.6,1-2.6
			c1.9-0.2,3.8,0.1,5.5,1.1c0.7,0.4,0.2,1.2,0.1,1.9c-1.2,7.1-2.3,14.3-3.5,21.4C146.3,215.9,146.3,216.7,146.2,217.4z"/>
		<path class="st0" d="M165,214.3c-1,0.1-2,0.1-3,0c-2.5-0.3-2.4,1.6-2.8,3.1c-0.1,0.5,0.9,1.3,0.1,1.7s-1.3-0.5-1.9-0.9
			c-0.4-0.3-0.8-0.6-1.5-1.1c0.2,0.9,0.7,1.7,1.4,2.2c0.5,0.6,1.5,1.1,1.5,1.6c0.1,4.6,4.3,4.5,6.9,6.3c0.3,0.2,0.5,0.4,0.8,0.6
			c0.6-0.1,0.2-1.3,1.2-1c1.4,2.4,1,3.7-1.5,4c-3.8,0.5-7.5,0.9-11.3,1.3c-1.6,0.2-2.4-0.6-2.8-2.2c-0.7-3.2-0.3-6.4-0.6-9.6
			c0.1-6.7,0.1-13.5,0.2-20.2c0.1-2.3,0.4-4.6,0.6-6.9c0-1.5,1.2-2.7,2.7-2.7c0.1,0,0.2,0,0.3,0c4.3-0.1,8.6-0.1,12.9-0.1
			c1.1,0,1.5,0.4,1.4,1.5c-0.1,0.7-0.1,1.3-0.2,2c-0.1,2.3-1.1,3.4-3.6,3.1c-1.4,0-2.8,0-4.2,0.2c-1.1,0-1.4,0.6-1.5,1.6
			c-0.1,2.6-0.3,5.1-0.5,7.7c-0.1,1.5,0.4,2,1.8,1.8c0.5-0.1,1-0.2,1.5-0.2c4-0.4,4.2-0.2,4.2,3.8
			C167.2,213.6,166.2,213.9,165,214.3z"/>
		<path class="st0" d="M125.1,204.7c0.2,1.2-0.3,1.8-1.5,1.5c-2.3-0.4-4.5-1.2-6.5-2.5c-1-0.7-2.9-10.3-2.1-11.3
			c0.3-0.4,0.8-0.6,1.3-0.7c1.6-0.4,3.2-0.8,4.8-1.2c0.8-0.3,1.6,0,2,0.8c0.1,0.2,0.1,0.4,0.1,0.6
			C123.8,196.2,124.4,200.5,125.1,204.7z"/>
		<path class="st0" d="M175.6,197.9c0.1-1.8,0.7-3.4,1.7-4.9c0.3-0.4,0.8-0.7,1.3-0.4s0.1,0.9-0.1,1.3c-0.8,1.6-1.6,3.3-2.5,4.9
			C175.2,198.9,175.4,198.4,175.6,197.9z"/>
		<path class="st0" d="M119.2,208.5l2,0.4c0.1,0.9-0.4,0.7-1,0.5c-0.9,0-1.8-0.2-2.6-0.5L119.2,208.5z"/>
		<path class="st0" d="M175.6,197.9l0.5,0.9c-0.1,0.4-0.4,0.9-0.7,0.6S175.2,198.3,175.6,197.9z"/>
		<path class="st0" d="M167.7,226.9l-1.2,1c0.6-1.2-0.7-1.7-1-2.9C166.5,225.3,167.3,226,167.7,226.9z"/>
		<path class="st0" d="M168.8,225.5c-0.1,0.3-0.2,0.7-0.5,0.5c-0.4-0.3-0.7-0.6-0.8-1.1c-0.1-0.4,0.4-0.4,0.6-0.4
			C168.6,224.5,168.8,224.9,168.8,225.5z"/>
		<path class="st1" d="M182.9,204.6c0.9,2.3,0.9,4.6,1.3,6.7c0.2,1.2-0.7,1.5-1.7,1.6c-1.3,0.1-1.2-0.8-1-1.6
			C181.8,209.1,181.8,206.9,182.9,204.6z"/>
		<path class="st0" d="M207.1,209.8l-2.1,1.6c0.3-1,1.1-1.9,2.1-2.2C207.3,209.3,207.3,209.6,207.1,209.8
			C207.2,209.8,207.1,209.8,207.1,209.8z"/>
		<path class="st0" d="M207.1,209.8v-0.7c0.3-0.3,1-0.9,1.1-0.6C208.5,209.3,207.6,209.5,207.1,209.8z"/>
		<path class="st0" d="M72.2,211.6c-0.4-1-0.5-2.1-0.3-3.1c0-3.2,0.1-3.2,3.1-1.8c1.7,0.8,1.6,1.5,0.3,2.5L72.2,211.6z"/>
		<path class="st0" d="M120.3,209.5l1-0.5c0.5,0,1.3,0.2,1.1,0.6C121.8,210.3,120.9,209.9,120.3,209.5z"/>
	</g>
</g>
</svg>
